<?xml version="1.0" encoding="utf-8"?>
<!-- Generator: Adobe Illustrator 19.0.0, SVG Export Plug-In . SVG Version: 6.00 Build 0)  -->
<svg version="1.1" id="图层_1" xmlns="http://www.w3.org/2000/svg" xmlns:xlink="http://www.w3.org/1999/xlink" x="0px" y="0px"
	 viewBox="0 0 646.7 212.7" style="enable-background:new 0 0 646.7 212.7;" xml:space="preserve">
<style type="text/css">
	.st0{fill-rule:evenodd;clip-rule:evenodd;fill:#F9BF2C;}
	.st1{fill-rule:evenodd;clip-rule:evenodd;fill:#FFFFFF;}
	.st2{fill-rule:evenodd;clip-rule:evenodd;fill:#F29600;}
	.st3{fill-rule:evenodd;clip-rule:evenodd;fill:#0B308E;}
	.st4{fill-rule:evenodd;clip-rule:evenodd;fill:#E60012;}
	.st5{fill-rule:evenodd;clip-rule:evenodd;fill:#231815;}
	.st6{fill:#E60012;}
</style>
<g id="XMLID_2_">
	<g id="XMLID_62_">
		<polygon id="XMLID_112_" class="st0" points="13.7,49.1 42.3,46.7 38.5,82.3 32.4,84.3 26.3,83.1 14.9,56 		"/>
		<path id="XMLID_111_" class="st1" d="M43.6,131.3c0.3,0.9,4.3,1.4,5.3,1.4c0.9-1.1,1.8-2.8,2.8-4.2c0.7-0.9,1.8-1.8,2.6-1.4
			c0.5,0.2,0.3,1.8,0,2.6c-0.3,1-0.8,1.9-1.2,3c-0.8,1.9-1.5,3.8-2.1,5.8c-3.9,13.3-2.4,25.8,4.9,37.6c8.7,14.1,23.5,20.5,39.4,22.4
			c24.6,3,51.7-7.4,58.4-33.1c1.9-7.2,2.1-13.9,1.2-21.2c-0.1-1.2-0.7-3-0.5-4.5c0.1-0.8,0.4-1.6,1-1.7c0.6-0.2,1.4,0.5,1.9,1.3
			c1.3,2,2,5.6,2.2,7.1c0.6,4.2,0.3,7.8,0.2,12c8.5-0.8,7.3-13.9,5.4-19.5c-2.6-8-8.3-14.4-14.5-19.9c-2.9-2.6-15,3.4-30.2-2.2
			c-3.4-1.3-5.9-2.7-8.3-5.4c-2.7,0.1-5,0.5-7.8,0.6c-2.7,0-5.5-0.5-8-0.4c-7.6,7.1-16.3,7.5-26.2,5.6c-2.6-0.5-11-2.6-13.8-2.6
			c-0.2,0-0.6,0-0.8,0c-2.5,0.2-4.2,0.1-5.7,0c-3-0.2-4.5-0.9-7.1-1.4c-0.4-0.1-0.9-0.2-1.4-0.2L43.6,131.3z"/>
		<path id="XMLID_106_" class="st1" d="M89.2,85.5c3.7,2,5.5,3.2,9.8,4.3c7.6,2,15.9,1.7,22.4-3.3c1.3-1,2.5-2.2,3.4-3.5
			c1.9-2.6,3.8-0.5,3.2,1c-0.8,2.2-5.1,5.7-7.2,6.8c-7.5,4.1-14.9,4.4-23.2,2.1c-4.1-1.2-6-2.6-9.6-4.4c-1-0.7-7-0.5-10.5-4
			c-8.3-8.5,3.2-16.6,8-9.7C87.1,76.9,86.8,80.1,89.2,85.5L89.2,85.5z M122.5,71c1.7,0.6,6.9-0.1,5,3.3c-2.8,5.2-19.9,11.5-24.7,4.5
			c-2.5-3.8-1.6-10.2,3.7-11.5c3-0.7,4.5,0.3,7.1,1.2c-2.2-10.1,4.2-14.2,8.8-11.7c1,0.5,3.8,3.5,3,4.3c-1.5,1.3-1.5-2-3.6-2.5
			c0.7,1.5,1.2,2.6,1.1,4.4c-0.7,0.4-1.5,1-1.8,1.7l2,1.3C123.4,68.1,123,69,122.5,71L122.5,71z M96.2,65.4c0.1,1.9-0.2,4.9-1.4,6.4
			c-4.2,5.4-10.8-2.5-8.7-10.7c1-4.1,4.9-7.6,9.1-5.4c1.2,0.6,3.7,3.1,3.6,4.4c-0.1,1.4-1.5,0.5-2-0.5c-0.5-0.9-1-1.6-2-1.9
			c0.6,1.9,1.2,2.3,1.1,4.6L94.1,64C94.7,64.6,95.5,64.8,96.2,65.4L96.2,65.4z M61.4,74.4c1.9,21.6,24.6,33.2,44.3,32.7
			c20-0.5,41.4-14.1,40.7-36.2c-0.3-10.1-5.9-18.7-13.9-24.6c-4.1-3-8.2-4.7-13-6.4c-2.9-1-4.7,0.2-7.7,0.7
			c-6.2,0.9-12,0.7-18.3-0.1c-4-0.5-4.3-1.1-8.2,0.4c-4,1.6-9,4-12.3,6.9C65.1,54.9,60.5,63.6,61.4,74.4L61.4,74.4z"/>
		<path id="XMLID_105_" class="st1" d="M17.7,36.4c-0.6,2.3-3.3,1.3-5,1.3c-0.8,1.6-1.6,3-1.3,5c0.2,1.5,1.6,3,3.1,3.5
			c8,2.6,33.4,0.2,25.6-8.7c-1.4,0.3-2.6,1.1-3.9,0.1c-0.5-0.9,1.9-2.3,2-5.2c0-2-1.5-3.6-2.9-4.6c-1.4,0.1-2.3,0.9-3.8,0.4
			c-0.7-2.1,5.5-6.2,0.2-10.9c-1.9-1.7-3.1-1.7-5-2.8c-2.8-1.7-2.2-2-3.5-4.3c-4.3,1.3-5.3,6.1-4.5,10.1c0.3,1.5,0.8,2.6-0.4,4
			c-1.5,1.7-3.6,3.3-4.2,5.8C13,34.5,16.8,34.7,17.7,36.4L17.7,36.4z"/>
		<path id="XMLID_104_" class="st1" d="M101.6,18.1c-0.1,2.4-3.1,8.4-5.6,8.8c-3,0.4-7.2-5.3-7.9-6.8c2.5-4.7-2-6.2-4.1-5
			c-1.9,1.1-3.3,5.6,2.3,6.1c0.6,2.2,1.5,4.8,2.2,7c1.4,4.1,1.6,3.7,1.7,7.2c6.5,1.7,18.4,1.7,24.9-0.1c-0.1-4.1-0.2-1.8,1.6-6.9
			c0.5-1.4,2.5-6.6,2.5-6.6s2.9,0.1,3.7-1.9c1.5-3.6-3-6.5-5.5-3.6c-1.6,1.9-0.5,2.8-0.1,4.4c-1,1.8-5.6,7.3-7.7,6.5
			c-2.9-1-5.1-6.2-5.4-9.1c1.1-1.2,2.2-1.7,1.7-3.9c-0.3-1.4-1.8-2.4-3.2-2.4C99.4,11.9,98.1,15.8,101.6,18.1L101.6,18.1z"/>
		<path id="XMLID_95_" class="st2" d="M24.7,75c0.2-0.3,3.7-2.6,5.2-2.3c1,0.2,5.4,1.2,6,1.4c-0.3,0.8-4.2,3.8-5.1,3.6
			C30.2,77.6,25.5,75.4,24.7,75L24.7,75z M37.7,57.3l1.9-2l-0.3,2.5C39.3,57.8,37.6,57.3,37.7,57.3L37.7,57.3z M32.5,55
			c0,0,4.3-0.7,4.9-1L35,56.4C35,56.4,32,55.2,32.5,55L32.5,55z M22.7,67.3c1-0.4,4.8-2.6,5.2-2.7c0.3,0,5.2,1.7,5.6,1.9
			c-0.5,0.7-4.2,3.2-5,3.2c-0.4,0-2.7-0.8-3.2-1C24.5,68.4,23.2,68.1,22.7,67.3L22.7,67.3z M30.7,62.8c0.7-0.8,2.6-2,3.6-2.8
			c1-0.8,0.9-1,2-0.6c0.8,0.3,1.8,0.5,2.6,0.8c0,1.6-1.8,3.2-2.9,4.2C34.8,64.4,31.6,63.5,30.7,62.8L30.7,62.8z M23.3,59.1
			c0.6-0.6,1.5-1,2.2-1.6c0.8-0.6,1.3-1.3,2.1-1.8c0.5,0.1,4.5,2,4.9,2.3c-0.6,1-3.5,2.9-4.7,3.6C26.6,61.3,24,60.1,23.3,59.1
			L23.3,59.1z M20.8,57.7c-0.9-0.5-1.9-1-2.4-1.9l4.9,0.1C22.9,56.6,21.6,57.3,20.8,57.7L20.8,57.7z M15.8,53c0.7,1.7,2.7,8,3.6,8.9
			l0.1-0.6l1.4-0.7c1,0.5,3.8,1.9,4.3,2.6c-0.9,0.7-3.5,2.1-4.6,2.3l2.1,5.1c0.4-0.4-0.3-0.4,0.7-0.2l2.3,1
			c-0.5,0.5-1.5,1.1-2.3,0.9c0.2,1,1.9,5.7,2.4,6.3c0.1-0.6-0.1-0.2,0.2-0.5c0.8,0.3,2.2,0.7,2.6,1.3c-0.6,0.5-1.4,1-2.2,0.9
			c0.4,1.6,0.8,1.6,2.6,1.8c1.1,0.1,2.8,0.4,3.7-0.2l-3.3,0c0.5-0.3,1.9-1.3,2.3-1.4c0.6-0.1,2.2,0.6,3,0.7c-0.1,0-0.2,0.1-0.2,0.2
			c0,0.1-0.2,0.1-0.2,0.2c0,0-0.1,0.1-0.2,0.2c2.6-0.5,3-1.1,3.1-3.7l-0.5,1.2L34.3,79c0.4-0.9,1.6-1.5,2.4-2.2l0,1.3
			c0.3-0.4,2.3-13.6,0.7-6.4c-1.2-0.1-4.4-0.7-5.3-1.2c0.5-0.7,1.9-1.4,2.6-2c1.2-0.9,1.7-1.7,3.2-1.5c0.5,4.2,1-7.7,1-8
			c0.4-3.1,0.9-6.5,1.1-9.6c-0.8,0.6-1.2,1.2-2.2,1.7c-2.4,1.4-6.1,2-8.8,2.2c-2.2,0.2-4.8,0.4-7.1,0.2c-1.1-0.1-2.3-0.2-3.4-0.4
			c-2.3-0.4-2.5-0.8-2.7-0.5C15.9,52.8,15.9,52.9,15.8,53L15.8,53z"/>
		<path id="XMLID_94_" class="st2" d="M122.5,71c-2.5-0.2-6.5-1.4-8.8-2.5c-2.6-1-4.1-2-7.1-1.2c-5.3,1.3-6.3,7.7-3.7,11.5
			c4.8,7,21.9,0.7,24.7-4.5C129.4,70.9,124.2,71.6,122.5,71L122.5,71z"/>
		<path id="XMLID_93_" class="st3" d="M96.2,65.4c-0.8-0.5-1.6-0.8-2.1-1.4l1.9-1.7c0.1-2.3-0.5-2.7-1.1-4.6c1,0.3,1.5,1,2,1.9
			c0.6,1,1.9,1.9,2,0.5c0.1-1.2-2.4-3.8-3.6-4.4c-4.3-2.2-8.1,1.3-9.1,5.4c-2.1,8.2,4.5,16.1,8.7,10.7C96,70.3,96.4,67.3,96.2,65.4
			L96.2,65.4z"/>
		<path id="XMLID_92_" class="st3" d="M89.2,85.5c-0.1,1-0.4,0.8-0.4,2c-0.9,0.3-1.6,0.1-2.2,0.4c0.1,0,1.6,0.6,1.7,0.7
			c3.5,1.7,5.4,3.1,9.4,4.2c8.3,2.3,15.7,2,23.2-2.1c2.1-1.1,6.4-4.6,7.2-6.8c0.6-1.5-1.3-3.6-3.2-1c-1,1.3-2.1,2.5-3.4,3.5
			c-6.4,4.9-14.8,5.2-22.4,3.3C94.7,88.7,92.9,87.5,89.2,85.5L89.2,85.5z"/>
		<path id="XMLID_91_" class="st3" d="M113.7,68.5c2.3,1,6.3,2.2,8.8,2.5c0.5-1.9,0.8-2.9,0.6-5l-2-1.3c0.3-0.7,1.2-1.3,1.8-1.7
			c0-1.8-0.4-2.9-1.1-4.4c2.1,0.5,2.1,3.9,3.6,2.5c0.8-0.9-2-3.8-3-4.3C117.9,54.4,111.5,58.4,113.7,68.5L113.7,68.5z"/>
		<path id="XMLID_90_" class="st1" d="M29.4,109.5c-5.5,1.3-1.4,13.4,2,15.2C31.3,123,29.7,110.3,29.4,109.5L29.4,109.5z"/>
		<path id="XMLID_89_" class="st0" d="M26.7,85.8c0,6.5,13.1,4.8,11.1-1c-0.5-0.6-2.3,0.9-5.2,1.3C30.1,86.4,28.5,85.7,26.7,85.8
			L26.7,85.8z"/>
		<path id="XMLID_88_" class="st0" d="M28.6,93.7c-0.6,5.5,11.6,4.4,9.1-0.9c-0.7-0.1-3.1,0.9-4.3,1C32,94,29.5,93.5,28.6,93.7
			L28.6,93.7z"/>
		<g id="XMLID_80_">
			<g id="XMLID_84_">
				<path id="XMLID_87_" class="st4" d="M145.2,188.6c4-0.1,16.7-3.8,20.8-6.7c4-2.8,3.2-5.6,2.2-9.8c-0.4-1.9-2.1-9.7-2.8-10.9
					c-3.2,1.2-1.2,1.1-6.2,1.9c-0.4,1.1-0.7,2.8-1,4c-1.1,3.8-2.4,7-4.3,10.5C151.7,181.5,148.2,185.8,145.2,188.6L145.2,188.6z"/>
				<path id="XMLID_86_" class="st4" d="M117.8,110.3c3.3,2.5,9.5,3.9,13.7,4.2c5.6,0.5,11.2-0.3,16.7-0.9c0-0.8-1.9-2.6-2.6-3.3
					c-2-2-1.6-1.3-1.8-4.2c-0.3-3.3-2.7-5.3-5.2-7c-0.4,0.2-3.6,2.9-4.5,3.5c-1.7,1.2-3.1,2-5,3c-1.8,1-3.6,1.8-5.5,2.6
					C122.6,108.7,118.1,110.1,117.8,110.3L117.8,110.3z"/>
				<path id="XMLID_85_" class="st4" d="M57.5,109.9c1.3,0.5,6.5,1.3,8.3,1.7c2.7,0.6,5.6,1.2,8.3,1.7c3.2,0.5,6.1,0.6,9.3,0
					c3.3-0.6,4.4-1.5,7.2-2.7c-0.7-0.6-4.8-1.7-6.1-2.2c-1.9-0.7-3.7-1.6-5.5-2.5c-6.1-3.4-5.4-3.6-9.7-6.7
					c-2.5,0.9-4.8,3.2-5.8,5.6c-0.9,2-1,1.8-2.9,2.8C59.6,108,57.8,109,57.5,109.9L57.5,109.9z"/>
			</g>
			<path id="XMLID_83_" class="st4" d="M89.7,88.1c0.1,0,0.5-0.1,0.5-0.1s-0.5-1.3-0.9-2.5c-2.4-5.4-2.2-8.6-3.6-10.7
				c-4.9-6.8-16.3,1.3-8,9.7c2.9,2.9,7.4,3.3,9.5,3.7C87.5,88.3,89,88.3,89.7,88.1z"/>
			<path id="XMLID_82_" class="st4" d="M61.5,189.7c-3.2-3.5-3.5-2.7-7.6-8.5c-4.1-5.9-3.2-5.6-5.9-10.1l2,16.7
				C51.4,188.3,59.8,189.6,61.5,189.7L61.5,189.7z"/>
			<path id="XMLID_81_" class="st4" d="M37.3,171c-0.6,1.3-1.4,6-1.6,7.6c-0.3,2.7,0.8,4.8,3.4,5.7L37.3,171z"/>
		</g>
		<path id="XMLID_79_" class="st0" d="M30.5,99.3l8.9-0.4l9.6,99.3l-0.9,2.4l-3.8-0.3l-1.7-3.8C42.5,196.5,30.6,99.3,30.5,99.3
			L30.5,99.3z"/>
		<path id="XMLID_63_" class="st5" d="M37.3,171l1.8,13.2c-2.6-0.9-3.7-3-3.4-5.7C35.8,177,36.7,172.4,37.3,171L37.3,171z
			 M145.2,188.6c3-2.7,6.5-7.1,8.6-11c1.9-3.5,3.2-6.7,4.3-10.5c0.3-1.2,0.6-2.9,1-4c5-0.8,2.9-0.7,6.2-1.9c0.7,1.2,2.4,9,2.8,10.9
			c1,4.2,1.8,7-2.2,9.8C161.9,184.7,149.2,188.4,145.2,188.6L145.2,188.6z M48.1,171.1c2.7,4.5,1.8,4.3,5.9,10.1
			c4,5.8,4.4,5,7.6,8.5c-1.7-0.1-10.2-1.3-11.5-1.9L48.1,171.1z M29.4,109.5c0.4,0.8,1.9,13.6,2,15.2
			C27.9,122.8,23.9,110.7,29.4,109.5L29.4,109.5z M41.5,112.9c3.8,0.8,6.9,2.2,14.4,1.6c2.1-0.3,11.5,2.1,14.3,2.6
			c9.9,1.9,18.5,1.5,26.2-5.6c2.5-0.1,5.4,0.4,8,0.4c2.8,0,5.2-0.4,7.8-0.6c2.4,2.7,4.9,4.2,8.3,5.4c15.2,5.6,27.2-0.4,30.2,2.2
			c6.1,5.5,11.8,11.9,14.5,19.9c1.9,5.6,3.1,18.7-5.4,19.5c0.2-4.2,0.5-7.8-0.2-12c-0.3-1.8-1.1-6-2.7-7.7c-1.4-1.5-2.3-0.5-2.4,1.2
			c-0.1,1.4,0.4,3.1,0.6,4.3c0.8,7.3,0.6,14-1.2,21.2c-6.7,25.7-33.8,36.1-58.4,33.1c-15.9-1.9-30.8-8.3-39.4-22.4
			c-7.3-11.9-8.8-24.3-4.9-37.6c0.6-2,1.3-3.9,2.1-5.8c0.7-1.6,1.4-2.8,1.6-4.4c0.1-1.2-0.3-1.7-1.4-1.2c-2,0.9-3,4-4.3,5.5
			c-1,0-5-0.5-5.3-1.4L41.5,112.9z M117.8,110.3c0.3-0.2,4.8-1.6,5.8-2c1.9-0.7,3.7-1.6,5.5-2.6c1.8-1,3.3-1.9,5-3
			c1-0.7,4.1-3.3,4.5-3.5c2.6,1.7,4.9,3.6,5.2,7c0.3,2.9-0.2,2.3,1.8,4.2c0.7,0.6,2.6,2.5,2.6,3.3c-5.5,0.6-11.1,1.4-16.7,0.9
			C127.3,114.2,121,112.8,117.8,110.3L117.8,110.3z M57.5,109.9c0.3-0.8,2.1-1.9,3-2.3c1.9-1,2-0.8,2.9-2.8c1-2.5,3.3-4.7,5.8-5.6
			c4.4,3.1,3.6,3.3,9.7,6.7c1.8,1,3.6,1.8,5.5,2.5c1.3,0.5,5.4,1.5,6.1,2.2c-2.7,1.1-3.9,2.1-7.2,2.7c-3.2,0.6-6.1,0.5-9.3,0
			c-2.8-0.5-5.6-1.1-8.3-1.7C64,111.2,58.8,110.4,57.5,109.9L57.5,109.9z M32.4,101l4-0.3c3.7,32.2,7.5,65,11.2,97.2
			c0,1.2-2.5,1.5-3,0.4L32.4,101z M28.6,93.7c0.8-0.2,3.4,0.3,4.9,0.1c1.2-0.1,3.6-1.1,4.3-1C40.2,98,28.1,99.2,28.6,93.7L28.6,93.7
			z M26.7,85.8c1.9-0.1,3.5,0.6,5.9,0.3c2.9-0.4,4.7-1.8,5.2-1.3C39.7,90.7,26.6,92.3,26.7,85.8L26.7,85.8z M61.4,74.4
			C60.5,63.6,65.1,54.9,73,47.8c3.2-2.9,8.2-5.3,12.3-6.9c3.9-1.5,4.3-0.9,8.2-0.4c6.2,0.8,12,1,18.3,0.1c3-0.4,4.8-1.7,7.7-0.7
			c4.8,1.7,8.8,3.4,13,6.4c8,5.8,13.6,14.5,13.9,24.6c0.7,22-20.7,35.7-40.7,36.2C86.1,107.7,63.3,96.1,61.4,74.4L61.4,74.4z
			 M36.8,77.9c-0.2,4.3-4.6,4.5-8,4c-1.7-0.2-2.1-0.1-2.5-1.8c-1.1-3.2-2.5-6.6-3.6-9.8c-2.4-5.8-4.4-11.7-6.7-17.6
			c-0.2-0.9-0.5-1-0.5-1.9c3.6-0.3,9,2,19.6-0.7c1.6-0.4,3.8-1.5,5.3-1.7l-0.1,0.8C40,52,36.7,77.9,36.8,77.9L36.8,77.9z M17.7,36.4
			c-0.9-1.7-4.7-1.9-3.7-6.5c0.6-2.5,2.6-4.1,4.2-5.8c1.2-1.3,0.7-2.4,0.4-4c-0.8-3.9,0.2-8.7,4.5-10.1c1.4,2.3,0.7,2.6,3.5,4.3
			c1.9,1.1,3.2,1.2,5,2.8c5.2,4.6-0.9,8.7-0.2,10.9c1.5,0.5,2.5-0.3,3.8-0.4c1.4,1,2.9,2.7,2.9,4.6c0,2.9-2.5,4.3-2,5.2
			c1.3,1,2.5,0.3,3.9-0.1c7.8,8.9-17.6,11.4-25.6,8.7c-1.5-0.5-2.8-1.9-3.1-3.5c-0.3-2,0.6-3.4,1.3-5C14.4,37.6,17.1,38.7,17.7,36.4
			L17.7,36.4z M122.8,19.7c-0.9,2-2,1.5-3.6,2c-0.2,0.2-3.9,9.8-4.1,10.7c-0.1,0.5-0.1,1.1,0,2.8c-6.4,1.8-18.4,1.8-24.9,0.1
			c-0.1-3.5-0.4-3.1-1.7-7.2c-0.7-2.2-1.6-4.8-2.2-7c-5.7-0.5-4.2-5-2.3-6.1c2-1.2,6.5,0.3,4.1,5c0.7,1.5,4.9,7.2,7.9,6.8
			c2.6-0.4,5.6-6.4,5.6-8.8c-3.4-2.3-2.1-6.2,1.1-6.3c1.5,0,2.9,1,3.2,2.4c0.5,2.2-0.6,2.7-1.7,3.9c0.3,2.9,2.5,8.2,5.4,9.1
			c2.1,0.7,6.7-4.7,7.7-6.5c-0.4-1.6-1.5-2.5,0.1-4.4C119.7,13.5,124.3,16.4,122.8,19.7L122.8,19.7z M37.5,24
			c0.5-3.4,0.7-4.9-1.3-7.9c-3-4.6-7.9-4.8-8.7-6.4c-0.7-1.3,1-2.7-0.4-4.1c-2.2-2.2-15.2,2.2-12.7,14.9c0.3,1.7-0.4,1.6-1.5,3
			c-1.6,2-3,4.3-3.1,7c-0.2,3.5,1,2.6-0.1,4.2C7.4,38,5.9,42.2,8.1,45.9c1.4,2.4,0.7,0.9,1.2,3.6c0.6,3.4,1.6,1.4,3.5,6.5
			c0.9,2.4,1.8,4.8,2.7,7.1l6.8,18.1c0.7,1.9,1,1.7,0.5,3.7c-0.6,2.5,0.5,5.5,2.7,6.9c-0.4,1.4-0.8,2-0.4,3.7
			c0.5,1.9,1.5,2.8,2.3,3.4c0.5,0.4,1,0.9,1.2,2.2c0.1,1.2,0.4,2.6,0.4,3.8c-2.3,1.2-5.9,1.7-6.7,8.1c-0.5,4,1.1,8.3,3.2,11.6
			c2.4,3.6,4.5,4.9,5.8,6c0.7,0.5,1.1,1,1.2,1.8l3.3,26.3c0.1,3.1-6.4,18.5-4,24.5c0.6,1.6,1.9,3.1,3.3,4.1
			c5.8,4.1,4.2-1.1,5.8,10.2c0.4,2.5,0.8,4.2,3.6,4.9c2.4,0.6,4.7-0.1,6-2.2c1.1-1.9,0.1-5.3,0.1-7.6c5.2,0.8,10.2,1.6,15.4,2.2
			c3.7,0.4,3.4,0.4,6.7,2c11.2,5.3,24.1,7.6,36.5,6.6c9.5-0.7,18.5-3.2,26.7-8c2.7-1.5,18-3.2,27.5-7.1c12.7-5.2,10.8-10.9,8-22.3
			c-0.6-2.2-1.1-4.7-1.8-6.9c-0.9-2.8,0.5-3.7,1.1-6.6c1.1-5,0.5-10.1-1.2-14.9c-1.4-4.1-3.5-7.8-6.1-11.3c-3.5-4.8-7.1-7.7-8.1-9.1
			c-1-1.4-1.6-3.8-3-5.7c-0.8-1.1-3.7-4.1-3.9-4.8c-0.6-1.7-0.1-3.4-2.3-6.4c-1.3-1.8-2.5-3-4.4-4.1c0.9-2.1,6.4-6.7,8.4-17.1
			c2.6-13.2-2.9-27.3-13.8-35.4c-2.6-1.9-4.9-3.4-7.8-4.9c-3.1-1.6-5.9-2.3-9-3.6c-0.1-0.3-0.2-1.3,0-2c0.5-2.4,1.9-6.4,3.1-8.1
			c0.3-0.4,0.8-0.4,1-0.5c3.4-2.3,4.4-6.6,2.1-10.1c-3.6-5.6-12.1-3.4-13.1,2.8c-0.1,0.5-0.1,0.9-0.1,1.3c0.1,0.9,0.3,1.5,0.3,1.5
			l-2.6,2.8l-1.6-3.8c0,0,0.7-0.9,1.2-2.7c0.7-4-2.3-8.3-7.2-8.3c-3.7,0-6.5,2.9-7.1,6.1c0,0.3-0.1,0.7-0.1,1
			c-0.2,2.8,1.3,4.1,1.3,4.1L95.2,22l-2.5-2.9c0.7-3.7-1.5-5.9-1.5-5.9l0,0c-0.4-0.5-0.9-1-1.5-1.4c-5.4-3.7-13.1,1.4-11,8.1
			c0.8,2.6,1.8,2.4,3.6,4c0,0,0.1,0.2,0.3,0.4c0.7,1.4,2.3,6,3,8.8c0.3,1.2,0.1,2.2,0,2.5C85,36.6,67,40.3,59.4,58.4
			c-4.7,11.2-3.1,23.7,3.7,33.6c0.8,1.1,2,2.5,2.6,3.5c-0.5,0.7-3.1,2.3-4,3.4c-0.7,0.8-2.7,4.1-2.9,4.3c-1.4,1.1-2.8,1.4-4.2,3
			c-1.3,1.4-2.3,2.2-3,4.2c-2.1,0-9.3-1.3-10.7-2.7l-1-9.4c1.1-0.9,1.8-2.5,1.9-3.9c0.1-1.9-0.7-2.6-1.4-4.1c1.1-1.9,2.3-3.5,1-6.7
			c-0.8-2-1-0.9-0.7-3.5c0.1-1.2,0.3-2.4,0.4-3.6c0.6-5.1,1.2-10.3,1.7-15.4c0.1-1.2,1.1-10.4,1.4-11.3c1.9-5.2,0-4.2,0.9-7.1
			c1.7-5.1-2.9-8.7-3.1-9.1c0-2.6,0.2-3.6-1.2-5.9C39.9,25.9,38.7,25.2,37.5,24L37.5,24z"/>
	</g>
	<g id="XMLID_3_">
		<g id="XMLID_56_">
			<path id="XMLID_61_" class="st4" d="M254.1,87.7l1.6-2.4l30-45.5c1-1.5,2.4-2.7,4-3.4l0.2-0.1l0.1,0l0.2-0.1
				c1.4-0.6,2.9-0.9,4.5-0.9l0,0l0,0h0.2l0,0l0.2,0h0c1.6,0.1,3.2,0.5,4.7,1.2l0,0c2.1,1.1,3.6,2.7,4.5,4.6l0.1,0.1l0,0.1l0.1,0.1
				c0.4,0.9,0.6,1.9,0.6,3v84.9c0,5-4.7,9.1-10.4,9.1l0,0c-5.7,0-10.4-4.1-10.4-9.1V81.7c-0.1-2-0.4-2.8-2.2,0l-19.7,30
				c-4,6.1-14.5,6.1-18.5,0l-19.7-30c-1.8-2.8-2.1-2-2.2,0v47.6c0,5-4.7,9.1-10.4,9.1l0,0c-5.7,0-10.4-4.1-10.4-9.1V44.3
				c0-1,0.2-2.1,0.6-3l0.1-0.1l0-0.1l0.1-0.1c0.8-1.9,2.4-3.5,4.5-4.6l0,0c1.5-0.7,3.1-1.1,4.7-1.2h0l0.2,0l0,0h0.2l0,0l0,0
				c1.6,0,3.2,0.3,4.5,0.9l0.2,0.1l0.1,0l0.2,0.1c1.6,0.8,3.1,1.9,4,3.4l30,45.5l1.6,2.4C253.1,89.3,252.9,89.3,254.1,87.7z"/>
			<path id="XMLID_60_" class="st4" d="M330.2,35.2L330.2,35.2c5.7,0,10.4,4.3,10.4,9.5v84.2c0,5.2-4.7,9.5-10.4,9.5l0,0
				c-5.7,0-10.4-4.3-10.4-9.5V44.7C319.8,39.5,324.5,35.2,330.2,35.2z"/>
			<path id="XMLID_59_" class="st4" d="M572.2,35.2L572.2,35.2c0.4,0,0.7,0,1.1,0h54.6c5.7,0,10.4,4.1,10.4,9.1v0
				c0,5-4.7,9.1-10.4,9.1h-8.9c-11.3,0-22.6,0-33.8,0c-1.4,0-2.5,1-2.5,2.2v20.4c0,1.2,1.1,2.2,2.5,2.2c11.3,0,22.6,0,33.8,0l0.3,0
				l6.6,0c5.7,0,10.4,4.1,10.4,9.1l0,0c0,5-4.7,9.1-10.4,9.1l-6.4,0l-0.5,0c-11.3,0-22.6,0-33.8,0c-1.4,0-2.5,1-2.5,2.2V118
				c0,1.2,1.1,2.2,2.5,2.2c11.3,0,22.6,0,33.8,0h8.9c5.7,0,10.4,4.1,10.4,9.1v0c0,5-4.7,9.1-10.4,9.1h-55.2l-0.2,0l-0.2,0l0,0
				c-5.7,0-10.4-4.1-10.4-9.1V44.3C561.8,39.3,566.5,35.2,572.2,35.2z"/>
			<path id="XMLID_58_" class="st4" d="M439.7,36.7L439.7,36.7c4.6,3,5.6,8.7,2.3,12.7l-26.1,31.4c-6.2,7.4-5.4,5.5,1.3,13.6
				l24.8,29.8c3.4,4,2.3,9.8-2.3,12.7h0c-4.6,3-11.1,2.1-14.5-2l-21.9-26.3c-6.3-7.6-4.3-7.6-10.6,0.1l-21.8,26.3
				c-3.4,4-9.9,4.9-14.5,2l0,0c-4.6-3-5.6-8.7-2.3-12.7l24.1-29c8.3-9.8,8.1-7.1-0.4-17.3L354,49.4c-3.4-4.1-2.3-9.8,2.3-12.7v0
				c4.6-3,11.1-2.1,14.5,2l22.5,27c5.5,6.6,3.7,6.9,9.1,0.4l22.8-27.4C428.5,34.6,435,33.7,439.7,36.7z"/>
			<path id="XMLID_57_" class="st4" d="M500.2,138.7h-0.5c-24.9,0-45.4-17.9-45.4-39.8V44c0-5,4.7-9.1,10.4-9.1
				c5.7,0,10.4,4.1,10.4,9.1c0,19.1,0.6,34.1,0.6,53.4c0,11.9,11.1,21.6,24.7,21.6h1.7c13.6,0,24.7-9.7,24.7-21.6V46.7
				c0.1-1.2,0.3-2.7,0.7-4.2c0.8-4.3,5.1-7.7,10.3-7.7c5.7,0,10.4,4.1,10.4,9.1v55c0,21.9-20.4,39.8-45.4,39.8H500.2z"/>
		</g>
		<g id="XMLID_4_">
			<g id="XMLID_6_">
				<path id="XMLID_54_" class="st6" d="M387.5,182.4v-21.5c0-0.6,0.5-1.1,1.1-1.1h2.4c0.6,0,1.1,0.5,1.1,1.1v21.5
					c0,0.6-0.5,1.1-1.1,1.1h-2.4C388,183.5,387.5,183,387.5,182.4z"/>
				<path id="XMLID_52_" class="st6" d="M416.2,182.4v-21.5c0-0.6,0.5-1.1,1.1-1.1h13.4c0.6,0,1.1,0.5,1.1,1.1v1.9
					c0,0.6-0.5,1.1-1.1,1.1h-9.2c-0.4,0-0.7,0.3-0.7,0.7v4.2c0,0.4,0.3,0.7,0.7,0.7h7.6c0.6,0,1.1,0.5,1.1,1.1v1.9
					c0,0.6-0.5,1.1-1.1,1.1h-7.6c-0.4,0-0.7,0.3-0.7,0.7v4.4c0,0.4,0.3,0.7,0.7,0.7h9.2c0.6,0,1.1,0.5,1.1,1.1v1.9
					c0,0.6-0.5,1.1-1.1,1.1h-13.4C416.7,183.5,416.2,183,416.2,182.4z"/>
				<path id="XMLID_50_" class="st6" d="M405.7,183.7c-2.6,0-4.7-0.9-6.4-2.6c-2.4-2.4-2.3-5.4-2.3-9.5c0-4.1-0.1-7.1,2.3-9.5
					c1.7-1.7,3.8-2.6,6.4-2.6c2.5,0,4.2,0.7,5.7,1.9c0.5,0.4,0.6,1.2,0.1,1.7l-1.5,1.5c-0.4,0.4-1.1,0.4-1.5,0.1
					c-0.8-0.6-1.5-1-2.8-1c-1.3,0-2.3,0.5-2.9,1.2c-0.9,1-1.2,2.1-1.2,6.7c0,4.6,0.3,5.7,1.2,6.7c0.7,0.8,1.7,1.2,2.9,1.2
					c1.3,0,2-0.4,2.8-1c0.4-0.4,1.1-0.3,1.5,0.1l1.5,1.5c0.5,0.5,0.4,1.3-0.1,1.7C409.9,183,408.2,183.7,405.7,183.7z"/>
				<path id="XMLID_48_" class="st6" d="M488.2,182.4v-21.5c0-0.6,0.5-1.1,1.1-1.1h13.4c0.6,0,1.1,0.5,1.1,1.1v1.9
					c0,0.6-0.5,1.1-1.1,1.1h-9.2c-0.4,0-0.7,0.3-0.7,0.7v4.2c0,0.4,0.3,0.7,0.7,0.7h7.6c0.6,0,1.1,0.5,1.1,1.1v1.9
					c0,0.6-0.5,1.1-1.1,1.1h-7.6c-0.4,0-0.7,0.3-0.7,0.7v4.4c0,0.4,0.3,0.7,0.7,0.7h9.2c0.6,0,1.1,0.5,1.1,1.1v1.9
					c0,0.6-0.5,1.1-1.1,1.1h-13.4C488.7,183.5,488.2,183,488.2,182.4z"/>
				<path id="XMLID_46_" class="st6" d="M598.7,182.4v-21.5c0-0.6,0.5-1.1,1.1-1.1h13.4c0.6,0,1.1,0.5,1.1,1.1v1.9
					c0,0.6-0.5,1.1-1.1,1.1H604c-0.4,0-0.7,0.3-0.7,0.7v4.2c0,0.4,0.3,0.7,0.7,0.7h7.6c0.6,0,1.1,0.5,1.1,1.1v1.9
					c0,0.6-0.5,1.1-1.1,1.1H604c-0.4,0-0.7,0.3-0.7,0.7v4.4c0,0.4,0.3,0.7,0.7,0.7h9.2c0.6,0,1.1,0.5,1.1,1.1v1.9
					c0,0.6-0.5,1.1-1.1,1.1h-13.4C599.2,183.5,598.7,183,598.7,182.4z"/>
				<path id="XMLID_44_" class="st6" d="M548.5,182.4v-11.8c0-0.2-0.3-0.3-0.4-0.1l-3.7,7.4c-0.2,0.5-0.7,0.7-1.2,0.7h-1.5
					c-0.5,0-1-0.3-1.2-0.7l-3.8-7.4c-0.1-0.2-0.4-0.1-0.4,0.1v11.8c0,0.6-0.5,1.1-1.1,1.1h-2.4c-0.6,0-1.1-0.5-1.1-1.1v-21.5
					c0-0.6,0.5-1.1,1.1-1.1h2.5c0.6,0,1.2,0.3,1.4,0.9l5.6,11.5c0.1,0.2,0.3,0.2,0.4,0l5.5-11.5c0.3-0.5,0.8-0.9,1.4-0.9h2.5
					c0.6,0,1.1,0.5,1.1,1.1v21.5c0,0.6-0.5,1.1-1.1,1.1h-2.4C549,183.5,548.5,183,548.5,182.4z"/>
				<path id="XMLID_42_" class="st6" d="M456.6,183.7c-2.6,0-4.7-0.9-6.4-2.6c-2.4-2.4-2.3-5.4-2.3-9.5c0-4.1-0.1-7.1,2.3-9.5
					c1.7-1.7,3.8-2.6,6.4-2.6c2.5,0,4.2,0.7,5.7,1.9c0.5,0.4,0.6,1.2,0.1,1.7l-1.5,1.5c-0.4,0.4-1.1,0.4-1.5,0.1
					c-0.8-0.6-1.5-1-2.8-1c-1.3,0-2.3,0.5-2.9,1.2c-0.9,1-1.2,2.1-1.2,6.7c0,4.6,0.3,5.7,1.2,6.7c0.7,0.8,1.7,1.2,2.9,1.2
					c1.3,0,2-0.4,2.8-1c0.4-0.4,1.1-0.3,1.5,0.1l1.5,1.5c0.5,0.5,0.4,1.3-0.1,1.7C460.7,183,459,183.7,456.6,183.7z"/>
				<path id="XMLID_39_" class="st6" d="M479.2,182.9l-4.1-8.5c-0.1-0.2-0.3-0.4-0.6-0.4h-2.2c-0.4,0-0.7,0.3-0.7,0.7v7.7
					c0,0.6-0.5,1.1-1.1,1.1H468c-0.6,0-1.1-0.5-1.1-1.1v-21.5c0-0.6,0.5-1.1,1.1-1.1h8.2c4.8,0,7.7,3.3,7.7,7.3
					c0,3.1-1.8,5.1-3.9,6.1c-0.2,0.1-0.4,0.4-0.2,0.6l4.4,8.5c0.3,0.6-0.1,1.3-0.8,1.3h-3.2C479.8,183.5,479.4,183.2,479.2,182.9z
					 M475.9,163.9h-3.7c-0.4,0-0.7,0.3-0.7,0.7v4.9c0,0.4,0.3,0.7,0.7,0.7h3.7c2,0,3.4-1.3,3.4-3.1
					C479.3,165.2,477.9,163.9,475.9,163.9z"/>
				<path id="XMLID_36_" class="st6" d="M523.1,182.7l-1-3.1c-0.1-0.2-0.2-0.3-0.4-0.3h-7.8c-0.2,0-0.4,0.1-0.4,0.3l-1.1,3.1
					c-0.2,0.5-0.6,0.8-1.1,0.8h-2.4c-0.8,0-1.3-0.8-1.1-1.5l7.8-21.5c0.2-0.4,0.6-0.7,1.1-0.7h2.1c0.5,0,0.9,0.3,1.1,0.7l7.9,21.5
					c0.3,0.7-0.3,1.5-1.1,1.5h-2.4C523.7,183.5,523.3,183.2,523.1,182.7z M517.6,167.3l-2.6,7.4c-0.1,0.3,0.1,0.6,0.4,0.6h4.7
					c0.3,0,0.5-0.3,0.4-0.6l-2.5-7.4C518,167.1,517.7,167.1,517.6,167.3z"/>
				<path id="XMLID_33_" class="st6" d="M633.7,182.7l-1-3.1c-0.1-0.2-0.2-0.3-0.4-0.3h-7.8c-0.2,0-0.4,0.1-0.4,0.3l-1.1,3.1
					c-0.2,0.5-0.6,0.8-1.1,0.8h-2.4c-0.8,0-1.3-0.8-1.1-1.5l7.8-21.5c0.2-0.4,0.6-0.7,1.1-0.7h2.1c0.5,0,0.9,0.3,1.1,0.7l7.9,21.5
					c0.3,0.7-0.3,1.5-1.1,1.5h-2.4C634.2,183.5,633.8,183.2,633.7,182.7z M628.1,167.3l-2.6,7.4c-0.1,0.3,0.1,0.6,0.4,0.6h4.7
					c0.3,0,0.5-0.3,0.4-0.6l-2.5-7.4C628.5,167.1,628.2,167.1,628.1,167.3z"/>
				<path id="XMLID_29_" class="st6" d="M572.7,182.8l-1.2-1.4c-1.1,0.9-2.7,2.3-6.1,2.3c-5.2,0-7.8-2.7-7.8-7.2c0-3,2.2-5,4.3-6.4
					c-1-1.1-2.4-2.8-2.4-5c0-3.2,2.4-5.5,6.3-5.5c3.7,0,6.1,2.4,6.1,5.6c0,1.8-1,3.1-2.4,4.1c0,0-1.1,0.8-1.7,1.2l4,4.7
					c0.6-0.8,1-1.9,1.1-3.2c0.1-0.6,0.5-1,1.1-1l1.9,0c0.7,0,1.2,0.6,1.1,1.3c-0.3,2.5-1,4.5-2.4,6.1l3,3.6c0.5,0.6,0.1,1.5-0.7,1.5
					H574C573.5,183.5,573,183.3,572.7,182.8z M564.1,172.8c-1.4,1-2.4,1.9-2.4,3.6c0,2,1.6,3.3,3.6,3.3c1.4,0,2.4-0.4,3.5-1.4
					L564.1,172.8z M565.7,163.2c-1.3,0-2,0.8-2,1.9c0,0.9,0.7,1.7,1.6,2.7c0.3-0.2,1-0.7,1-0.7c0.8-0.5,1.4-1.2,1.4-2
					C567.7,164.1,567,163.2,565.7,163.2z"/>
				<path id="XMLID_27_" class="st6" d="M588.3,164.3v18.1c0,0.6-0.5,1.1-1.1,1.1h-2.4c-0.6,0-1.1-0.5-1.1-1.1v-18.1
					c0-0.2-0.2-0.4-0.4-0.4h-4.6c-0.6,0-1.1-0.5-1.1-1.1v-1.9c0-0.6,0.5-1.1,1.1-1.1h14.8c0.6,0,1.1,0.5,1.1,1.1v1.9
					c0,0.6-0.5,1.1-1.1,1.1h-4.6C588.5,163.9,588.3,164.1,588.3,164.3z"/>
				<g id="XMLID_15_">
					<path id="XMLID_25_" class="st6" d="M273.4,182.3v-21.3c0-0.6,0.5-1.1,1.1-1.1h13.3c0.6,0,1.1,0.5,1.1,1.1v1.9
						c0,0.6-0.5,1.1-1.1,1.1h-9.1c-0.4,0-0.7,0.3-0.7,0.7v4.2c0,0.4,0.3,0.7,0.7,0.7h7.5c0.6,0,1.1,0.5,1.1,1.1v1.9
						c0,0.6-0.5,1.1-1.1,1.1h-7.5c-0.4,0-0.7,0.3-0.7,0.7v4.4c0,0.4,0.3,0.7,0.7,0.7h9.1c0.6,0,1.1,0.5,1.1,1.1v1.9
						c0,0.6-0.5,1.1-1.1,1.1h-13.3C273.9,183.4,273.4,182.9,273.4,182.3z"/>
					<path id="XMLID_23_" class="st6" d="M263.2,183.6c-2.6,0-4.7-0.9-6.3-2.6c-2.4-2.4-2.3-5.3-2.3-9.4c0-4.1-0.1-7,2.3-9.4
						c1.7-1.7,3.8-2.6,6.3-2.6c2.5,0,4.1,0.7,5.6,1.9c0.5,0.4,0.6,1.2,0.1,1.7l-1.5,1.5c-0.4,0.4-1,0.4-1.5,0.1
						c-0.7-0.6-1.5-1-2.8-1c-1.3,0-2.2,0.5-2.9,1.2c-0.9,1-1.2,2.1-1.2,6.6c0,4.5,0.3,5.6,1.2,6.6c0.7,0.8,1.7,1.2,2.9,1.2
						c1.2,0,2-0.4,2.8-1c0.4-0.4,1.1-0.3,1.5,0.1l1.5,1.5c0.5,0.5,0.4,1.2-0.1,1.7C267.4,182.8,265.7,183.6,263.2,183.6z"/>
					<path id="XMLID_21_" class="st6" d="M245.7,182.8l-8.5-13.2c-0.1-0.2-0.4-0.1-0.4,0.1v12.6c0,0.6-0.5,1.1-1.1,1.1h-2.4
						c-0.6,0-1.1-0.5-1.1-1.1v-21.3c0-0.6,0.5-1.1,1.1-1.1h2.3c0.5,0,0.9,0.2,1.1,0.6l8.5,13.2c0.1,0.2,0.4,0.1,0.4-0.1v-12.5
						c0-0.6,0.5-1.1,1.1-1.1h2.4c0.6,0,1.1,0.5,1.1,1.1v21.3c0,0.6-0.5,1.1-1.1,1.1h-2.3C246.4,183.4,246,183.1,245.7,182.8z"/>
					<g id="XMLID_19_">
						<path id="XMLID_20_" class="st6" d="M209.5,183.7c-3.1,0-6-0.7-7.6-1.1c-0.6-0.2-0.9-0.7-0.8-1.3l0.4-1.9
							c0.1-0.6,0.8-1,1.4-0.8c3.3,0.9,10.8,2.4,10.9-1.2c0.1-2.3-3-3.2-5.6-3.7c-1.2-0.3-2.5-0.5-3.5-1c-3.1-1.6-4.6-5.5-2.9-8.8
							c2.6-5.4,9.8-4.6,14.5-3.2c0.6,0.2,0.9,0.8,0.7,1.4l-0.7,1.9c-0.2,0.6-0.8,0.9-1.4,0.7c-2.8-0.9-7.9-1.9-9.3,1
							c-0.8,1.6-0.1,3.3,1.6,3.8l6.1,1.7c3,1,4.8,3.4,4.7,6.5C218,182.3,213.6,183.7,209.5,183.7L209.5,183.7z"/>
					</g>
					<g id="XMLID_16_">
						<path id="XMLID_17_" class="st6" d="M222.4,182.3v-21.3c0-0.6,0.5-1.1,1.1-1.1h2.4c0.6,0,1.1,0.5,1.1,1.1v21.3
							c0,0.6-0.5,1.1-1.1,1.1h-2.4C222.9,183.4,222.4,182.9,222.4,182.3z"/>
					</g>
				</g>
				<path id="XMLID_12_" class="st6" d="M323.3,159h-2.6c-3.1,0-5.7,2.5-5.7,5.7v4.2c0,1.8,0.6,3.3,1.7,4.4c1,1,2.4,1.6,3.9,1.6
					c1.6,0.1,3.1-0.1,4.4-0.5v1.2c0,2.7-2.2,4.9-4.9,4.9h-1.8h-0.7h-0.7c-0.7,0-1.2,0.5-1.2,1.2v1.4c0,0.7,0.5,1.2,1.2,1.2h0.7h0.7
					h1.8c4.9,0,8.8-3.9,8.8-8.8v-10.8C329,161.5,326.4,159,323.3,159z M325.1,170.2c-1.3,0.6-2.7,0.8-4.3,0.8l0,0
					c-0.4,0-0.9-0.1-1.3-0.4c-0.3-0.3-0.5-0.9-0.5-1.7v-4.2c0-1,0.8-1.8,1.8-1.8h2.6c1,0,1.8,0.8,1.8,1.8V170.2z"/>
				<path id="XMLID_9_" class="st6" d="M339.2,159h-2.6c-3.1,0-5.7,2.5-5.7,5.7v4.2c0,1.8,0.6,3.3,1.7,4.4c1,1,2.4,1.6,3.9,1.6
					c1.6,0.1,3.1-0.1,4.4-0.5v1.2c0,2.7-2.2,4.9-4.9,4.9h-1.8h-0.7h-0.7c-0.7,0-1.2,0.5-1.2,1.2v1.4c0,0.7,0.5,1.2,1.2,1.2h0.7h0.7
					h1.8c4.9,0,8.8-3.9,8.8-8.8v-10.8C344.9,161.5,342.3,159,339.2,159z M341,170.2c-1.3,0.6-2.7,0.8-4.3,0.8l0,0
					c-0.4,0-0.9-0.1-1.3-0.4c-0.3-0.3-0.5-0.9-0.5-1.7v-4.2c0-1,0.8-1.8,1.8-1.8h2.6c1,0,1.8,0.8,1.8,1.8V170.2z"/>
				<path id="XMLID_8_" class="st6" d="M359.8,159.6c-0.4-0.5-0.9-0.7-1.5-0.7h-9.5H348h-0.7c-0.7,0-1.2,0.5-1.2,1.2v1.4
					c0,0.7,0.5,1.2,1.2,1.2h0.7h0.8h7l-4.8,18.2c0,0,0,0.1,0,0.1l-0.4,1.4c-0.2,0.7,0.2,1.3,0.9,1.5l0.5,0.1c0.1,0,0.1,0,0.2,0.1
					c0.1,0,0.1,0,0.2,0l0.5,0.1c0.7,0.2,1.3-0.2,1.5-0.9l0.4-1.4c0-0.1,0-0.1,0-0.2l5.5-20.6C360.3,160.7,360.2,160.1,359.8,159.6z"
					/>
				<path id="XMLID_7_" class="st6" d="M311.9,180.3h-2.3v-19.4c0-0.7-0.4-1.3-0.9-1.6c-0.6-0.4-1.3-0.4-1.9-0.1
					c-0.1,0.1-0.2,0.1-0.3,0.2c-0.1,0-0.1,0-0.2,0.1l-3.8,1.9c-0.5,0.2-0.7,0.8-0.4,1.3l0.9,1.8c0.2,0.5,0.8,0.7,1.3,0.4l1.6-0.8
					v16.3h-2.3c-0.7,0-1.2,0.5-1.2,1.2v0.4c0,0.1,0,0.3,0,0.4c0,0.1,0,0.3,0,0.4v0.3c0,0.7,0.5,1.2,1.2,1.2h0.7h7.1h0.7
					c0.7,0,1.2-0.5,1.2-1.2v-1.5C313.1,180.9,312.6,180.3,311.9,180.3z"/>
			</g>
			<circle id="XMLID_5_" class="st6" cx="373.4" cy="171.6" r="3"/>
		</g>
	</g>
</g>
</svg>
